<?xml version="1.0" encoding="UTF-8"?>
<svg id="Capa_2" data-name="Capa 2" xmlns="http://www.w3.org/2000/svg" viewBox="0 0 267.94 232.49">
  <defs>
    <style>
      .cls-1 {
        fill: #ebd7bd;
      }

      .cls-2 {
        fill: #d2c9bd;
      }

      .cls-3 {
        fill: #cabfb2;
      }

      .cls-4 {
        fill: #d0bba2;
      }

      .cls-5 {
        fill: #d5c5b2;
      }

      .cls-6 {
        fill: #d6d2ce;
      }

      .cls-7 {
        fill: #967860;
      }

      .cls-8 {
        fill: #f0ddc5;
      }

      .cls-9 {
        fill: #ecd7bc;
      }

      .cls-10 {
        fill: #c8b9a8;
      }

      .cls-11 {
        fill: #dbceba;
      }

      .cls-12 {
        fill: #d7d2ca;
      }

      .cls-13 {
        fill: #cebca8;
      }

      .cls-14 {
        fill: #e5e4e0;
      }

      .cls-15 {
        fill: #ddcaaf;
      }

      .cls-16 {
        fill: #b1a59e;
      }

      .cls-17 {
        fill: #d0c5b5;
      }

      .cls-18 {
        fill: #e9e9e6;
      }

      .cls-19 {
        fill: #decbb6;
      }

      .cls-20 {
        fill: #dedad4;
      }

      .cls-21 {
        fill: #d4c3ad;
      }

      .cls-22 {
        fill: #dbd7d2;
      }

      .cls-23 {
        fill: #805f45;
      }

      .cls-24 {
        fill: #6b4733;
      }

      .cls-25 {
        fill: #b7b4b2;
      }

      .cls-26 {
        fill: #e0d4c8;
      }

      .cls-27 {
        fill: #e0d9ce;
      }

      .cls-28 {
        fill: #7d6f65;
      }

      .cls-29 {
        fill: #d3c5b8;
      }

      .cls-30 {
        fill: #dfe0dc;
      }

      .cls-31 {
        fill: #b8afa5;
      }

      .cls-32 {
        fill: #eae9e7;
      }

      .cls-33 {
        fill: #e7ddcb;
      }

      .cls-34 {
        fill: #bcb1a2;
      }

      .cls-35 {
        fill: #d7d2cd;
      }

      .cls-36 {
        fill: #b5a89d;
      }

      .cls-37 {
        fill: #dcd0c3;
      }

      .cls-38 {
        fill: #d3c3aa;
      }

      .cls-39 {
        fill: #f4e5ce;
      }

      .cls-40 {
        fill: #c1af9b;
      }

      .cls-41 {
        fill: #c7bdb3;
      }

      .cls-42 {
        fill: #ece0c9;
      }

      .cls-43 {
        fill: #e6d5b9;
      }

      .cls-44 {
        fill: #b5a699;
      }

      .cls-45 {
        fill: #e0dedb;
      }

      .cls-46 {
        fill: #9b7a5f;
      }

      .cls-47 {
        fill: #dac8b0;
      }

      .cls-48 {
        fill: #cab299;
      }

      .cls-49 {
        fill: #bfb6b0;
      }

      .cls-50 {
        fill: #d3c9b4;
      }

      .cls-51 {
        fill: #d6bfa8;
      }

      .cls-52 {
        fill: #d4c2b9;
      }

      .cls-53 {
        fill: #d8d1ca;
      }

      .cls-54 {
        fill: #a28466;
      }

      .cls-55 {
        fill: #c3a88b;
      }

      .cls-56 {
        fill: #e1d3c8;
      }

      .cls-57 {
        fill: #e2cfb1;
      }

      .cls-58 {
        fill: #ddd0c1;
      }

      .cls-59 {
        fill: #dad7d4;
      }

      .cls-60 {
        fill: #d5cfc6;
      }

      .cls-61 {
        fill: #c1b099;
      }

      .cls-62 {
        fill: #a5866c;
      }

      .cls-63 {
        fill: #dfd7c9;
      }

      .cls-64 {
        fill: #bea68d;
      }

      .cls-65 {
        fill: #dacab4;
      }

      .cls-66 {
        fill: #a4886a;
      }

      .cls-67 {
        fill: #d9d0c7;
      }

      .cls-68 {
        fill: #cabfb4;
      }

      .cls-69 {
        fill: #cec2b3;
      }

      .cls-70 {
        fill: #b8afa3;
      }

      .cls-71 {
        fill: #c2b9ac;
      }

      .cls-72 {
        fill: #dbd1c0;
      }

      .cls-73 {
        fill: #714e38;
      }

      .cls-74 {
        fill: #dcd1c2;
      }

      .cls-75 {
        fill: #c7b095;
      }

      .cls-76 {
        fill: #e3e2e0;
      }

      .cls-77 {
        fill: #e7e6e4;
      }

      .cls-78 {
        fill: #decbb7;
      }

      .cls-79 {
        fill: #d9cfbd;
      }

      .cls-80 {
        fill: #948174;
      }

      .cls-81 {
        fill: #805f46;
      }

      .cls-82 {
        fill: #c3aa8b;
      }

      .cls-83 {
        fill: #b7b0a6;
      }

      .cls-84 {
        fill: #c3b1a1;
      }

      .cls-85 {
        fill: #d3cbbc;
      }

      .cls-86 {
        fill: #a79a8f;
      }

      .cls-87 {
        fill: #dbd5cc;
      }

      .cls-88 {
        fill: #e4e0d5;
      }

      .cls-89 {
        fill: #bca388;
      }

      .cls-90 {
        fill: #aa978b;
      }

      .cls-91 {
        fill: #d4bfa6;
      }

      .cls-92 {
        fill: #d6cdc4;
      }

      .cls-93 {
        fill: #e7d7c3;
      }

      .cls-94 {
        fill: #9b7e62;
      }

      .cls-95 {
        fill: #d7cfc5;
      }

      .cls-96 {
        fill: #eddcc5;
      }

      .cls-97 {
        fill: #b6aeaa;
      }

      .cls-98 {
        fill: #e7ddc9;
      }

      .cls-99 {
        fill: #ccbeab;
      }

      .cls-100 {
        fill: #b39f84;
      }

      .cls-101 {
        fill: #a2876e;
      }

      .cls-102 {
        fill: #cdb69b;
      }

      .cls-103 {
        fill: #b5997b;
      }

      .cls-104 {
        fill: #92755b;
      }

      .cls-105 {
        fill: #ab977a;
      }

      .cls-106 {
        fill: #ccc4bb;
      }

      .cls-107 {
        fill: #b7997b;
      }

      .cls-108 {
        fill: #b2a397;
      }

      .cls-109 {
        fill: #99938a;
      }

      .cls-110 {
        fill: #f4e2c8;
      }

      .cls-111 {
        fill: #ae9f8e;
      }

      .cls-112 {
        fill: #a68d78;
      }

      .cls-113 {
        fill: #c4bab0;
      }

      .cls-114 {
        fill: #87684e;
      }

      .cls-115 {
        fill: #decbae;
      }

      .cls-116 {
        fill: #e0d7ce;
      }

      .cls-117 {
        fill: #916f55;
      }

      .cls-118 {
        fill: #eedac0;
      }

      .cls-119 {
        fill: #dedbd5;
      }

      .cls-120 {
        fill: #ddd5ce;
      }

      .cls-121 {
        fill: #b9b1ab;
      }

      .cls-122 {
        fill: #d5cec3;
      }

      .cls-123 {
        fill: #e4e1dd;
      }

      .cls-124 {
        fill: #dfceb2;
      }

      .cls-125 {
        fill: #b4a596;
      }

      .cls-126 {
        fill: #cec0a8;
      }

      .cls-127 {
        fill: #dfd4c5;
      }

      .cls-128 {
        fill: #d4c5b0;
      }

      .cls-129 {
        fill: #cec2b9;
      }

      .cls-130 {
        fill: #b6a080;
      }

      .cls-131 {
        fill: #978b83;
      }

      .cls-132 {
        fill: #9d8976;
      }

      .cls-133 {
        fill: #c5b7a8;
      }

      .cls-134 {
        fill: #ece9e5;
      }

      .cls-135 {
        fill: #dcd0c2;
      }

      .cls-136 {
        fill: #bfb0a7;
      }

      .cls-137 {
        fill: #d5c1a9;
      }

      .cls-138 {
        fill: #ad9f8f;
      }

      .cls-139 {
        fill: #e2d7ca;
      }

      .cls-140 {
        fill: #cebba6;
      }

      .cls-141 {
        fill: #b6aaa0;
      }

      .cls-142 {
        fill: #e5dcd3;
      }

      .cls-143 {
        fill: #ddd0c3;
      }

      .cls-144 {
        fill: #d4c9ba;
      }

      .cls-145 {
        fill: #e4d2b9;
      }

      .cls-146 {
        fill: #ebe1cc;
      }

      .cls-147 {
        fill: #b9b7b3;
      }

      .cls-148 {
        fill: #eedfc7;
      }

      .cls-149 {
        fill: #aaa59e;
      }

      .cls-150 {
        fill: #a99d93;
      }

      .cls-151 {
        fill: #efe1c6;
      }

      .cls-152 {
        fill: #d1cdc7;
      }

      .cls-153 {
        fill: #d9d6d2;
      }

      .cls-154 {
        fill: #bab3ae;
      }

      .cls-155 {
        fill: #aea092;
      }

      .cls-156 {
        fill: #bfa88b;
      }

      .cls-157 {
        fill: #d8caba;
      }

      .cls-158 {
        fill: #e5d0b8;
      }

      .cls-159 {
        fill: #a88d78;
      }

      .cls-160 {
        fill: #bfae9f;
      }

      .cls-161 {
        fill: #cdbeab;
      }

      .cls-162 {
        fill: #dfddd0;
      }

      .cls-163 {
        fill: #ded3c3;
      }

      .cls-164 {
        fill: #bdb0a2;
      }

      .cls-165 {
        fill: #dbd2ca;
      }

      .cls-166 {
        fill: #bab1a8;
      }

      .cls-167 {
        fill: #816245;
      }

      .cls-168 {
        fill: #e1ceb4;
      }

      .cls-169 {
        fill: #927258;
      }

      .cls-170 {
        fill: #cec6bb;
      }

      .cls-171 {
        fill: #c2b6a8;
      }

      .cls-172 {
        fill: #a28d85;
      }

      .cls-173 {
        fill: #cdbaa4;
      }

      .cls-174 {
        fill: #c7beb1;
      }

      .cls-175 {
        fill: #e2d5c3;
      }

      .cls-176 {
        fill: #cab9a2;
      }

      .cls-177 {
        fill: #d1bfac;
      }

      .cls-178 {
        fill: #c9bcae;
      }

      .cls-179 {
        fill: #ceb69a;
      }

      .cls-180 {
        fill: #987;
      }

      .cls-181 {
        fill: #d7c9b9;
      }

      .cls-182 {
        fill: #d6d3cd;
      }

      .cls-183 {
        fill: #decab0;
      }

      .cls-184 {
        fill: #b99c7e;
      }

      .cls-185 {
        fill: #e3d0b6;
      }
    </style>
  </defs>
  <g id="Capa_1-2" data-name="Capa 1">
    <g>
      <path class="cls-110" d="m71.55,19.39c1.24-2,3.3-2.99,5.25-4.02,13.79-7.29,28.29-12.61,43.82-14.5,21.76-2.66,42.58.71,62.45,10.26,5.95,2.86,11.77,5.78,17.04,9.75.6.45,1.26.79,1.48,1.58-1.09.94-1.97,2.18-3.52,2.45-5.8-2.83-10.9-6.89-16.9-9.38-12.44-5.18-25.12-9.15-38.73-10.11-22.38-1.58-43.06,3.81-62.7,14.09-.66.35-1.31.71-2.03.91-1.98-.75-4.1-.67-6.16-1.02Z"/>
      <path class="cls-24" d="m198.76,212.97c-11.54,8.14-24.33,13.72-37.99,16.87-6.85,1.58-13.98,2.68-21.15,2.36-3.99-.32-7.99-.47-11.97.07-8.23-.15-16.26-1.67-24.2-3.65-13.81-3.46-25.91-10.55-37.73-18.2-.38-.25-.6-.76-.9-1.15-1.15-2.78.6-2.67,2.45-2.47,1.24.24,2.45.7,3.38,1.47,5.15,4.27,11.59,6.08,17.28,9.25,10.51,5.86,21.89,8.41,33.59,10.14.74.11,1.48.16,2.21.34,7.09.56,14.17.51,21.25,0,17.4-1.91,33.31-8.22,48.61-16.37,1.02-.37,2.08-.63,3.15-.74,1.45-.14,2.38.36,2.01,2.06Z"/>
      <path class="cls-75" d="m236.67,62.09c5.31,8.99,8.72,18.7,10.84,28.88.53,2.52.78,5.1,1.16,7.65-.67.31-2.14-1.37-2.06.91.04,1.09.24,2.45-1.25,2.99-1.21-.62-1.21-1.8-1.3-2.9-.94-11.09-4.64-21.35-9.34-31.32-.68-1.45-1.64-2.82-1.49-4.55.57-1.73,1.78-2.15,3.43-1.65Z"/>
      <path class="cls-169" d="m241.99,161.16c-3.82,10.61-10.33,19.63-17.01,28.54-.66.88-1.57,1.56-2.37,2.33-.79-1.52-.55-3.27-1.07-4.85,3.94-5.72,7.84-11.47,11.28-17.52,1.66-2.93,3.38-5.81,4.65-8.94.46-1.14.85-2.39,2.31-2.71,1.71.36,2.91,1.09,2.22,3.14Z"/>
      <path class="cls-167" d="m67.21,207.66c-1.3-.2-2.7-.55-2.39,1.62-9.25-6.7-17.37-14.53-23.91-23.94-.76-1.68-.44-2.74,1.6-2.84,2.45,1.07,4.26,3.04,5.87,5,5.07,6.14,10.84,11.54,16.92,16.64,1.05.88,2.76,1.55,1.89,3.52Z"/>
      <path class="cls-51" d="m31.29,63.52c.82-3.59,3.29-6.3,5.26-9.18,2.95-4.32,5.29-9.18,9.56-12.51,1.33-1.89,3.32-3.22,4.54-5.2h0c1.63-1.29,3.4-2.4,4.84-3.93,1.7-1.81,2.46-.87,2.87,1.01-2.65,3.72-5.28,7.45-8.58,10.66-4.3,4.19-7.12,9.47-10.56,14.3-.92,1.29-1.52,2.87-3.11,3.58-2.01-1.08-3.06,1.45-4.84,1.28Z"/>
      <path class="cls-104" d="m42.98,183.08c-1.75-.21-2.11.84-2.05,2.26-6.95-8.87-12.72-18.39-16.1-29.23-.21-.69-.24-1.43-.35-2.15-.42-.58-.44-1.28.14-1.62,1.1-.64,1.83.17,2.51.91,5.2,9.03,9.55,18.55,15.56,27.13.53.75,1.18,1.69.29,2.69Z"/>
      <path class="cls-81" d="m222.02,187.56c1.5,1.32.95,2.91.58,4.47-4.74,6.19-10.48,11.38-16.67,16.03-2.29,1.72-4.14,4.23-7.17,4.9-1.06-2.95-3.09-.16-4.54-.77-.25-1.82,1.4-2.16,2.39-2.91,5.34-4.06,10.67-8.12,15.88-12.35,3.11-2.27,5.98-4.79,7.96-8.17.37-.61.77-1.18,1.57-1.21Z"/>
      <path class="cls-158" d="m198.65,24.7c.12-1.86,1.29-2.37,2.93-2.24,7.07,4.35,13.05,9.98,18.71,15.98,1.19,1.26,2.48,2.43,2.94,4.19-1.2.75-2.64.55-3.92,1.01-1.99-.4-3.2-1.93-4.31-3.34-4.03-5.1-8.84-9.28-14.26-12.84-.94-.62-2.27-1.2-2.1-2.76Z"/>
      <path class="cls-156" d="m19.21,105.27c0-8.48,2.9-16.4,4.66-24.55,3.28-2.21,3.44.33,3.84,2.51-1.15,8.18-3.39,16.18-4.05,24.44-.16.39-.42.69-.77.93-1.34.19-2.73.82-3.91-.45-.05-.97-.27-1.95.23-2.88Z"/>
      <path class="cls-66" d="m241.99,161.16c-.15-1.49-1.18-2.24-2.38-2.85-.57-.78-.61-1.67-.3-2.49,2.98-7.83,4.19-16.07,5.68-24.25.35-.91.47-1.88.67-2.82.49-2.29,1.76-2.73,3.68-1.44.78.91.01,1.45-.5,2.05-.55,10.97-2.61,21.62-6.85,31.8Z"/>
      <path class="cls-184" d="m249.4,127.83c-1.63-.56-3.2-1.06-2.88,1.71.08.73-.02,1.47-.69,1.98-1.65-1.78-1.06-3.89-.87-5.93.87-5.97.78-11.94.03-17.91-.22-1.81-.67-3.66.73-5.25v-6.51c2.1.39,1.9,2.11,2.95,2.71.71,2.41.84,4.89.89,7.38.39,7.28.71,14.55-.16,21.82Z"/>
      <path class="cls-19" d="m58.12,33.57c-.52-.49-.69-2.17-1.84-.53-1.38,1.96-3.53,2.72-5.62,3.58,5.98-6.94,12.8-12.84,20.88-17.23,1.83-.34,3.92-2.57,5.25.72-.43,1.62-1.9,2.26-3.07,3.11-4.02,2.93-8.14,5.74-12.04,8.83-.99.79-1.92,2.09-3.56,1.52Z"/>
      <path class="cls-137" d="m219.58,43.38c.82-2.17,2.34-.94,3.65-.75,5.96,5.47,9.89,12.33,13.44,19.47-.88.67-2.24.43-2.91,1.5-2-.12-2.54-1.89-3.28-3.19-2.95-5.19-6.38-10.04-10.1-14.7-.53-.67-1.16-1.34-.79-2.33Z"/>
      <path class="cls-107" d="m19.31,108.37c.99.21,1.99-1.39,2.98.02,1.38,1.58.92,3.51,1.01,5.33.19,3.82-.4,7.67.43,11.47.37,3.52.63,7.06.7,10.6-1.09,1.43-3.17,1.97-3.67,3.96-1.29-3.34-1.42-6.85-1.59-10.36-.3-7.01-.62-14.02.16-21.02Z"/>
      <path class="cls-179" d="m26.77,82.99c.1-2.13-.65-3.15-2.9-2.26,2.58-5.69,3.7-12,7.42-17.2,1.67.06,1.54-5.04,4.41-1.54,0,2.69-1.16,5.02-2.22,7.4-1.56,3.51-3.17,7-4.43,10.64-.41,1.18-.42,2.83-2.28,2.97Z"/>
      <path class="cls-89" d="m259.18,113.53c.23-1.37,1.26-1.99,1.79-.61,1.11,2.91,3.24,4.04,5.99,4.65.39.09.83.61.95,1.02.16.55-.31.89-.86.93-4.25.32-5.72,3.3-6.79,7.12-.86-3.94-2.6-6.73-6.79-7.56-1.32-.26-.17-1.3.51-1.79,2.51-.17,4.6-.92,5.2-3.75Z"/>
      <path class="cls-64" d="m10.21,113.6c.29.72.58,1.44.87,2.15.93,1.27,3.67,1.14,2.89,3.73-3.71.83-3.58,4.48-5.34,7.36-.24-5.39-3.96-6.89-7.96-8.1,1.13-2.6,4.23-1.34,5.86-2.98.5-1.23,1.01-2.47,1.51-3.7,1.47-.55,1.6.79,2.16,1.53Z"/>
      <path class="cls-54" d="m20.74,139.75c.03-.85-.06-1.73.11-2.55.52-2.55,1.66-1.78,2.85-.45,2.8,5.41,4.91,10.94,3.04,17.17-.76-.19-1.57-2.84-2.26.05-1.99-4.54-3.3-9.26-3.73-14.22Z"/>
      <path class="cls-34" d="m249.4,127.83c.05-7.27.11-14.54.16-21.82,1.48,7.36.49,14.79.54,22.19,0,.7-.67.97-1.28,1.16.19-.51.38-1.02.57-1.54Z"/>
      <path class="cls-71" d="m19.31,108.37c-.05,7.01-.11,14.01-.16,21.02-1.04-8.04-1.1-16.08.06-24.12.03,1.03.07,2.06.1,3.1Z"/>
      <path class="cls-28" d="m127.65,232.28c3.99-1.03,7.98-1.01,11.97-.07-3.99.34-7.98.38-11.97.07Z"/>
      <path class="cls-85" d="m13.98,119.49c-.26-1.79-2.28-2.22-2.89-3.73,1.16.36,2.35.65,3.48,1.1.64.25,1.58.53,1.41,1.43-.18.96-1.03,1.29-2,1.2Z"/>
      <path class="cls-29" d="m259.18,113.53c-.13,3.47-2.03,4.48-5.2,3.75,1.86-1.07,4.21-1.47,5.2-3.75Z"/>
      <path class="cls-60" d="m6.53,115.78c-1.43,2.02-4.24,1.33-5.86,2.98-1.4-1.01-.3-1.42.49-1.65,1.77-.52,3.57-.89,5.37-1.33Z"/>
      <path class="cls-19" d="m50.66,36.62c-.57,2.55-2.65,3.8-4.54,5.2.75-2.4,2.71-3.75,4.54-5.2Z"/>
      <path class="cls-52" d="m10.21,113.6c-.72-.51-1.44-1.02-2.16-1.53.06-.69-.08-1.97.7-1.78,1.57.38,1.58,1.92,1.46,3.31Z"/>
      <path class="cls-80" d="m123.16,228.69c7.49.01,14.98.03,22.46.04-7.49,1.11-14.98,1.05-22.46-.04Z"/>
      <path class="cls-169" d="m213,197.27c2.67-2.8,5.35-5.6,8.02-8.4-1.53,3.89-4.54,6.37-8.02,8.4Z"/>
      <path class="cls-35" d="m22.91,108.26c0,5.78,0,11.57-.01,17.35-1.48-5.7-.29-11.49-.61-17.23.21-.03.42-.07.63-.13Z"/>
      <path class="cls-22" d="m245.87,125.62c0-6.04,0-12.08,0-18.12,1.07,6.04,1.06,12.08,0,18.12Z"/>
      <path class="cls-8" d="m77.57,23.91c4.96-4.04,10.84-6.49,16.65-8.81,15.14-6.05,31.01-8.6,47.26-7.53,21.38,1.4,40.7,8.82,58.03,21.41.57.41.9,1.14,1.34,1.72-.54,1.34-1.21,2.54-2.96,2.39-7.31-4.74-14.76-9.23-22.74-12.76-16.46-7.28-33.63-9.17-51.47-7.63-12.9,1.12-24.83,4.95-36.28,10.69-1.01.51-2.06.88-3.2.93-2.12-1.44-4.47.59-6.63-.4Z"/>
      <path class="cls-40" d="m230.69,65.81c4.63,8.38,8.25,17.14,10.14,26.56.19.97.3,1.95.46,2.93.33,1.97-.54,2.68-2.47,2.61-2.98-.1-5.97-.04-8.95-.04-43.78,0-87.56.01-131.34.01-1.74,0-3.48-.07-5.22-.11.13-2.49,1.66-2.97,3.77-2.62,3.18,1.3,6.38,1.58,9.58.04,1.05-.43,2.13-.52,3.24-.32,1.5,1.11,3.14,1.57,4.99,1.03,1.42.02,2.83-.42,4.24-.06,3.34.33,6.69.82,9.9-.72.91-.31,1.84-.35,2.76-.05,1.72,1.2,3.44,1.22,5.17,0,.93-.3,1.84-.24,2.74.11,3.62,1.51,7.24,1.33,10.85-.01,1.23-.43,2.48-.78,3.8-.55,1.54,2.77,3.4,1.18,5.21.38,1.15-.33,2.27-.26,3.38.16,4.23,1.35,8.63,1.39,12.48,1.68,1.02-.04.37-.84.58-.39.05.1-.06.22-.28.17-1.7-.39-3.97,1.49-5.06-1.28.07-.39.27-.7.61-.92,1.85-.46,1.77-1.89,1.92-3.4.35-3.42,1.5-6.41,5.27-7.5,2.4-.24,5.12-1.66,6.51,1.78.12.72.12,1.46.28,2.19.27,1.17.91,2.45-.37,3.39-1.28.94-1.97-.42-2.85-.94-1.03-.61-2.09-.95-3.06-.07-1.3,1.16-1.05,2.64-.6,4.11.94,1.63,2.55,1.35,4,1.35,9.8.04,19.66.65,29.39-.19,7.42-.64,14.83,1.47,22.16-.5.6-.16,1.21-.22,1.71-.6,1.2-1.57.19-3.09-.13-4.6-1.23-5.82-4.11-11.09-5.59-16.82-.06-1.33-.53-2.54-.94-3.79-.49-1.48-.42-2.89,1.71-3.02Z"/>
      <path class="cls-168" d="m97.02,121.04c3.39,5.94,4.69,12.72,7.54,18.88.58,1.26-.03,1.93-1.27,1.99-1.74.08-3.48.05-5.22.04-1.19,0-2.01-.48-1.58-1.81.29-.89.16-1.63-.07-2.5-1.96-7.48-5.34-9.44-13.14-7.6-1.14.27-1.75.87-1.97,1.93-.61,2.84-2.78,5.34-1.9,8.52.27.99-.27,1.36-1.14,1.43-.62.04-1.24.03-1.86.04-4.95.09-4.98.08-3.24-4.45,3.44-8.98,6.91-17.95,10.37-26.93,2.36.06,2.35,1.79,2.16,3.36-.27,2.21-.4,4.38.12,6.55.71,1.33-1.94,3.37.53,4.06,1.56.44,3.86,2.1,5.14-.78,1.11-4.25,2.5-4.94,5.53-2.73Z"/>
      <path class="cls-43" d="m35.8,137.46c-.02-7.93-.08-15.87-.02-23.8.02-2.52-.07-4.93-2.21-7.32,3.04-.19,5.55-.43,8.06-.49,1.47-.03,1.53.89,1,2.02-1.82,3.91-.63,8.06-.91,12.1-.12,1.68.81,2.51,2.48,2.52.25,0,.5.04.74,0,3.03-.32,7.97,1.33,8.75-.76,1.59-4.31,1.46-9.42-.07-14.13,1.66-2.73,5.79-2.74,7.52,0-.92,1.31-.77,2.81-.77,4.29-.02,8.52-.05,17.04-.07,25.56-2.07-.49-1.49-2.24-1.58-3.56-.21-3.15.14-6.33-.23-9.56-2.03.2-2.95,1.59-4.09,2.65-4.22.03-8.44.07-12.66.1-.5-.11-.9-.38-1.29-.7-.65-.53-1.21-1.58-2.15-1.16-1.05.48-.81,1.7-.83,2.67-.06,2.11.1,4.23-.08,6.33-.1,1.22.35,2.87-1.6,3.24Z"/>
      <path class="cls-73" d="m170.25,218.78c-8.82,3.79-18.22,4.95-27.61,6.18-5.51.49-11.02.44-16.54.03-17.21-.82-32.84-6.68-47.73-14.94-2.7-1.5-5.41-2.93-7.62-5.14-.45-.96-2.45-1.5-1.1-2.94,1.39-1.49,2.36-.04,3.31.86.35.33.58.78.95,1.11,5.41,3.01,10.62,6.46,16.26,8.91,8.14,3.54,16.52,6.64,25.47,7.62,3.71.94,7.52,1.08,11.32,1.26,4.94.89,9.88.94,14.81-.05,4.06-.07,8.11-.3,12.09-1.18,5.71-.58,11.12-2.26,16.38-4.48.79.92.8,1.84,0,2.76Z"/>
      <path class="cls-183" d="m170.33,121.8c.19.43.26,1.09.58,1.25,5.88,2.88,8.18,6.03,7.5,10.39-.68,4.34-4.58,8.02-10.06,8.35-6.81.42-13.66.24-20.48.09-2.49-.05-2.82-1.32-.79-2.92.62-3.25.54-6.52.46-9.8-.04-1.71.17-3.63,1.93-4.5,1.73-.85,3.03.23,4.06,1.6.89,2.12.56,4.36.58,6.56.02,2.41.96,3.76,3.5,3.6,3.85-.24,7.93.96,11.4-1.73,1.9-3.53,1.75-5.5-.67-8.15-.83-.91-1.86-1.82-1.25-3.18.59-1.33,1.63-2.14,3.23-1.57Z"/>
      <path class="cls-101" d="m108.97,177.83c2.11-3.24,5.94-3.06,8.96-4.51,3.3-.71,6.51-.54,9.6.91.7.46,1.45.86,2.08,1.4,2.15,1.86,4.03,2.78,4.75-1.7,1.01,1.51,1.69,2.53,2.58,3.86,1.7-1.61,3.36-3.21,5.65-3.75,4.99-1.71,9.77-1.43,14.28,1.49,3.12,1.09,5.33,3.34,7.52,5.69,3.35,3.58,6.57,3.65,10.17.26,1.62-1.52,3.31-2.89,5.35-3.8,2.45-.71,4.89-1.63,7.46-.5,1.83,1.1,4.32,1.29,5.16,3.75.26.75.38,1.54-.34,1.99-.54.34-1.26.1-1.69-.39-2.41-2.74-5.34-4.34-8.9-2.77-3.73,1.64-6.69,4.26-7.65,8.52-.62,1.13-.12,2.37-.35,3.53-.36,1.86-1.17.91-1.91.26-.16-3.76-2.04-5.74-5.79-6.67-2.48-.62-4.26-2.89-6.14-4.72-6.86-6.7-15.87-6.6-22.38.46-2.13,2.31-3.22,2.44-5.23-.14-4.98-6.4-13.41-7.25-19.92-2.35-.78.59-1.37,1.48-2.49,1.48-.68-.63-1.21-1.3-.76-2.29Z"/>
      <path class="cls-185" d="m195.5,106.24c-1.63,2.45-1.33,4.83-1.33,7.17,0,7.82.08,15.65-.06,23.47-.03,1.63,1.96,3.21.69,4.45-1.48,1.45-3.8.47-5.74.62-2.33.18-3.34-.55-2.01-3,.44-.81.41-1.92.41-2.9.04-8.2-.09-16.4.13-24.59.05-1.77-1.8-3.7-.71-4.72,1.65-1.57,4.27-.4,6.46-.64.48-.05.97.06,2.16.14Z"/>
      <path class="cls-96" d="m120.87,126.98c1.06-4.89,3.62-9.15,5.81-13.54,1.38-2.77.92-3.84-2.27-3.62-4.25.29-8.72-.74-12.44,2.42-.79.67-1.5.1-1.44-.82.12-1.79-.76-3.72.65-5.35,7.99-.52,15.98-.57,23.97.02,1.37,1.48-.21,2.53-.68,3.6-3.47,8.06-7.07,16.06-10.63,24.08-2.62.69-2.52-1.28-2.59-2.81-.06-1.34.42-2.72-.38-3.99Z"/>
      <path class="cls-57" d="m234.49,109.11c.02,9.89.05,19.78.04,29.67,0,.93.51,2.28-.52,2.7-1.27.53-1.82-.84-2.44-1.71-2.51-3.49-5.01-6.98-7.51-10.48-1.62-2.91-3.24-5.83-4.46-8.93-.44-1.12-1.04-2.49.38-3.31,1.47-.85,2.38.36,2.96,1.41,1.42,2.54,4.06,3.95,5.63,6.32.48.48.96.97,1.44,1.45.96-5.76.31-11.56.35-17.34,0-1.25-1.74-2.94,1.15-3.16,2.04-.15,3.11.48,2.72,2.7-.04.21.15.46.26.68Z"/>
      <path class="cls-84" d="m97.07,95.69c-1.79-.26-2.94.61-3.77,2.09-21.19.04-42.39.08-63.58.11-.84,0-1.77.16-2.36-.72,1.65-1.54,4.13-.88,5.86-2.23,3.23-.66,6.42.19,9.62.25,7.69.14,15.38.51,23.1-.36,6.42-.73,12.93-.13,19.4-.23,1.6-.02,3.25.3,4.73-.58,1.29-.98,1.66-2.17.61-3.5-1.01-1.28-2.29-1.33-3.6-.4-2.2,1.56-3.64,1.81-3.35-1.69.19-2.29-1.44-1.45-2.51-1.19-1.41.34-2.12,1.6-3.01,2.62-.61.7-1.17,1.82-2.38,1.07-1.04-.65-.78-1.74-.5-2.68.61-2.1,1.67-3.85,3.93-4.56,2.6-.29,5.03-1.59,7.72-1.37,5.55,1.18,9.19,4.13,9.38,10.23.03.99.72,1.53,1.34,2.12.32.66.1,1-.63,1.03Z"/>
      <path class="cls-145" d="m170.33,121.8c-3.69,1.96-3.65,1.99-.79,4.52,3.04,2.7,1.65,5.83.65,8.89-.91-.85-.83-2.01-1.01-3.1-.6-3.64-1.62-4.42-5.41-4.77-3.52-.32-7.2.97-10.56-1.01-1.25-.23-2.4-2.1-3.6-.89-1.12,1.13-1.65,2.69-1.51,4.67.21,2.93.23,6.02-1.03,8.86.04-9.21.07-18.42.11-27.63,3-1.88,4.74-.08,6.35,2.15.14.34.21.71.35,1.04.81,1.99-1.15,5.02,2.01,6.09,3.93,1.33,8.92-.18,11.33-3.19.65-.73,1.06-1.71,2.06-2.08,1.24-.47,2.45-.46,3.46.49,1.01.94,1.21,2.07.61,3.37-.42.91-1.05,1.67-1.61,2.48-.47.04-.95.07-1.42.11Z"/>
      <path class="cls-23" d="m170.25,218.78c0-.92,0-1.84,0-2.76,15.14-4.89,27.69-14.03,39.4-24.4,3.36-2.97,5.57-7.15,8.97-10.2,2.05-.43,2.5.38,1.68,2.17-4.71,4.05-7.55,9.74-12.32,13.77-10.6,8.96-22.14,16.28-35.25,21.01-.85.3-1.6.61-2.49.41Z"/>
      <path class="cls-1" d="m228.57,124.78c-2.51-1.76-5.04-3.49-6.51-6.31-.36-.69-.9-1.34-1.73-.92-.94.49-.28,1.28-.07,1.92,1.07,3.35,3.54,6.16,3.81,9.82-3.71-3.47-6.12-8.09-10.53-11.79v5.76c-1.78-.64-2.39-2.43-3.57-3.67-.64-4.26,1.44-9.03-2.43-12.72-.54-.52.15-1.25.77-1.3,1.94-.14,4.18-.95,5.69.68,5.36,5.77,10.09,12.05,14.57,18.52Z"/>
      <path class="cls-118" d="m171.75,121.69c.13-.47.18-.97.41-1.39.79-1.47,1.55-3.05-.25-4.17-2.08-1.3-2.93.59-3.92,1.91-.18-.17-.37-.35-.45-.57-2.06-6.16-3.19-6.81-9.71-6.69-2.31.04-3.57,1.23-4.79,2.8-1.68-1.47-3.42-2.77-5.86-2.23-.07-1.29-.09-2.6-.88-3.72-.58-1.35.1-1.89,1.33-1.86,6.3.16,12.61-.46,18.9.32,4.99.41,7.04,1.95,8.38,6.29,1.19,3.86.06,6.94-3.16,9.32Z"/>
      <path class="cls-78" d="m77.57,23.91c2,.3,4.04-3.37,6.01.05.11,1.6-1.23,2.1-2.24,2.65-11.24,6.08-20.12,14.87-28.39,24.39-.8.92-1.4,2.09-2.76,2.38-1.34-.17-2.74.27-4.05-.34.44-2.36,2.38-3.8,3.8-5.38,7.77-8.65,15.9-16.95,25.93-23.08.51-.31,1.13-.45,1.7-.67Z"/>
      <path class="cls-65" d="m120.87,126.98c2.84-.3,1.52,1.94,1.38,2.8-.28,1.8-.69,3.34,1.59,3.99-.46,1.13-1.06,2.23-.73,3.81,4.7-.69,9.56,1.12,14.19-1.17,1.21-.6,1.65.29,1.51,1.25-.23,1.5,1.12,4.08-1.54,4.17-7.18.26-14.37.12-21.55.09-1.42,0-1.79-.99-1.07-2,2.81-3.97,3.83-8.78,6.22-12.94Z"/>
      <path class="cls-114" d="m73.92,203.94c-.41-.25-.84-.47-1.23-.74-.75-.52-1.35-1.8-2.41-1.05-1.47,1.04.7,1.76.47,2.76-8.48-4.98-14.82-12.27-21.2-19.53-3.06-3.48-6.19-6.86-7.88-11.27-.56-1.19-2.03-2.59.71-3,4.59,6.32,9.75,12.16,14.98,17.93,1.21,1.77,2.77,3.2,4.44,4.52,2.97,2.75,5.83,5.63,9.53,7.46,1.21.6,2.24,1.47,2.57,2.91Z"/>
      <path class="cls-9" d="m97.02,121.04c-3.76-1.09-4.34-.61-4.55,3.81-2.3-.71-2.2-3.01-3.01-4.67-.58-1.17-.89-2.47-1.15-3.86-1.47,1.55-.71,4.22-3.25,4.71-.64-2.35-1.22-4.66-.24-7.1.56-1.38.21-2.64-1.27-3.36-.78-5.3,2.87-4.57,6.09-4.51,1.53.03,2.46.5,2.97,2.11,1.36,4.32,2.93,8.58,4.42,12.87Z"/>
      <path class="cls-46" d="m220.31,183.6c.15-1.27-.36-2.03-1.68-2.17,2.6-3.84,5.47-7.52,7.75-11.55,3.12-5.5,6.37-11,7.4-17.41-.44-.61-.41-1.19.09-1.75,1.48-.15,2.96-.49,4.39.26-3.84,11.11-8.77,21.66-15.97,31.03-.51.66-1,1.45-1.97,1.59Z"/>
      <path class="cls-115" d="m54.41,126.99c-.16-.65-1.05-1.64-.11-1.89,1.89-.52,2.87-2.31,4.55-2.86.74-.25.77,1.04.77,1.75.02,3.33-.02,6.65.03,9.98.02,1.19-.39,2.49.65,3.5.41.87.88,1.73,1.23,2.63.41,1.01.06,1.74-1.08,1.78-2.09.06-4.19.06-6.28.01-.96-.02-1.4-.85-1-1.54,2.51-4.28.75-8.91,1.23-13.35Z"/>
      <path class="cls-15" d="m35.8,137.46c1.47-3.33.24-6.83.69-10.22.18-1.33-.9-3.28,1.19-3.79,1.95-.47,2.77,1.2,3.55,2.64.17.33.34.66.51.99.25,4.28-.91,8.67,1.05,12.82.55,1.16.12,1.93-1.23,2-.87.05-1.74.05-2.6.06q-5.2.07-3.16-4.5Z"/>
      <path class="cls-47" d="m198.65,32.91c.49-.98,1.2-1.74,2.2-2.21,7.82,4.58,13.29,11.66,19.33,18.13.53.57.92,1.16.79,1.98-1.22.72-.33,2.47-1.56,3.19-.99,0-1.56-.68-2.1-1.36-5.07-6.44-10.8-12.23-17.16-17.4-.71-.58-1.74-1.09-1.5-2.34Z"/>
      <path class="cls-82" d="m32.72,95.64c-1.14,2.76-3.58.97-5.35,1.53.9-8.73,3.45-16.95,7.5-24.72,2.3-2.2,2.51-2.15,3.42.9-2.7,6.7-4.7,13.59-5.7,20.75.09.51.15,1.02.12,1.54Z"/>
      <path class="cls-124" d="m209.97,119.59c2.06.38,2.94,1.9,3.57,3.67.4,5.56-.44,11.15.48,16.71.25,1.5-.8,2.04-2.04,1.97-1.33-.07-2.4-.67-2.38-2.26.12-6.7.24-13.39.37-20.08Z"/>
      <path class="cls-117" d="m132.11,206.93c.99-1.05.98-2.89,2.72-3.31,1.36,2.24,1.97,5.44,5.82,4.88-.08,2.49-4.52,2.78-2.69,6,.23.41-.79.84-1.06.63-2.24-1.74-4.53.72-7.05-.26,3.13-3.41-.56-4.09-2.18-5.67.68-2.32,3.58-.31,4.44-2.28Z"/>
      <path class="cls-176" d="m37.91,73.02c-.66-2.1-1.84-1.35-3.04-.57,2.81-7.02,6.59-13.47,11.27-19.41,1.28-.46,2.56-1.45,3.81.06.3,2.05-1.5,3.01-2.38,4.42-2.68,4.33-5.25,8.71-7.42,13.32-.43.9-.32,2.68-2.24,2.17Z"/>
      <path class="cls-94" d="m108.97,177.83c.25.76.5,1.53.76,2.29-2.85,3.25-5.72,6.27-10.5,6.78-2.94.31-2.03,3.15-2.21,5.12-.75.88-1.51,1.53-1.82-.27-.28-1.64.35-3.36-.38-4.97-1.1-3.57-4.32-5.11-6.91-7.25,0-1.89,1.24-1.48,2.27-1.1.92.33,1.53,1.27,2.51,1.56,2.84,2.94,5.84,5.34,10.23,2.99,1.81-.88,2.96-2.54,4.48-3.77.53-.46,1.06-.92,1.58-1.39Z"/>
      <path class="cls-72" d="m126.16,157.91c-.07,3.88-2.49,6.55-5.74,6.35-2.73-.17-5.49-3.68-5.48-6.97.02-3.8,1.96-5.7,5.74-5.65,3.86.05,5.55,2,5.47,6.26Z"/>
      <path class="cls-173" d="m219.57,53.88c.63-.94-2.57-3.64,1.39-3.06,3.19,5.03,8.33,8.81,9.73,15-1.3.73-1.8,1.79-.81,3.02.96,1.19.99,2.45.84,3.82-1.05,0-1.6-.77-1.89-1.57-1.84-5.11-5.12-9.35-8.08-13.8-.66-.99-1.53-2.02-1.18-3.41Z"/>
      <path class="cls-11" d="m109.01,162.91c-2,1.43-2.27.08-2.25-1.47.02-1.75,0-3.15-2.46-3.08-2.38.07-2.01,1.62-2.06,3.07-.04.97.11,2.35-1.13,2.38-1.28.03-1.15-1.36-1.15-2.32,0-2.84.01-5.68.06-8.52.01-.7-.04-1.64,1-1.61.62.02,1.04.6,1.15,1.28.26,1.54-.55,3.6,2.38,3.57,3.29-.03,1.67-2.66,2.42-4.01.12-.21.32-.36.49-.54,1.5-.04,1.9.94,1.85,2.14-.13,3.04.42,6.09-.3,9.11Z"/>
      <path class="cls-175" d="m152.63,152.47c-.95,1.27-2.27.56-3.39.69-1.02.12-2.04.07-2.07,1.5-.02,1.15.7,1.44,1.67,1.51.71.05,1.64-.05,1.75.95.15,1.32-.95,1.25-1.78,1.27-1.58.05-1.76,1.04-1.67,2.28.11,1.39,1.13,1.31,2.14,1.48,1.16.2,3.39-.76,3.22,1.05-.17,1.81-2.41,1.07-3.82,1.01-3.02-.12-4.52-1.54-3.91-4.73.14-.72.02-1.48.03-2.23.05-6.12,1.56-7.06,7.82-4.8Z"/>
      <path class="cls-133" d="m141.28,185.35c3.29.03,5.28,2.1,5.03,5.53-.21,2.87-1.4,4.98-4.78,4.95-3.2-.03-4.97-1.82-4.97-5.14,0-3.5,1.66-5.37,4.73-5.35Z"/>
      <path class="cls-10" d="m126.67,195.86c-2.92-.05-5.13-2.35-5.03-5.25.11-3.13,2.46-5.4,5.48-5.27,2.59.1,4.97,2.77,4.92,5.51-.05,2.78-2.48,5.05-5.37,5Z"/>
      <path class="cls-7" d="m42.39,171.12c-1.8.63-.61,1.97-.71,3-3.34-4.64-6.49-9.39-8.25-14.9.09-2.19.42-2.28,2.89-.8,1.34,4.56,5.47,7.79,6.07,12.7Z"/>
      <path class="cls-2" d="m43.89,160.04c-1.21-2.13.47-2.34,1.77-2.35,10.32-.05,20.64-.03,30.96.04,1.29,0,2.99.2,1.75,2.33-.21-.04-.43-.07-.64-.11-9.48-.13-18.97.03-28.44-.51-1.59-.09-3.21-.11-4.76.43-.21.05-.42.11-.63.16Z"/>
      <path class="cls-127" d="m159.07,157.22c.51-1.71-.82-5.49.92-5.37,2.61.18,1.21,3.66,1.22,5.63.01,3.1.44,5.22,4.23,4.68.57-.08,1.33-.06,1.45.76.04.28-.19.77-.44.9-1.88.97-3.91.63-5.84.33-1.82-.28-1.54-1.97-1.55-3.32,0-1.12,0-2.24,0-3.62Z"/>
      <path class="cls-111" d="m74.96,189.36c-5.93-3.34-10.21-8.31-14.08-13.69-.3-.41-.58-.86-.04-1.25.57-.41,1.35-.36,1.67.15,3.47,5.5,8.44,9.71,12.45,14.78Z"/>
      <path class="cls-112" d="m92.68,179.99c-1.67.67-2.93-2.93-4.78-.46-3.27-.49-6.43-.65-8.69,2.47-.67.93-1.6,1.9-2.68.71-.87-.96-.26-2.02.5-2.96,2.38-2.95,10.02-3.83,13.76-1.48.71.45,1.27,1.14,1.89,1.72Z"/>
      <path class="cls-155" d="m193.18,189.21c4.73-5.22,10.19-9.31,14.02-15.78.24,4.93-9.81,15.98-14.02,15.78Z"/>
      <path class="cls-178" d="m117.37,195.15c-.96.32-1.31.55-1.62.52-1.65-.17-4.01.99-4.77-.61-.64-1.35,1.69-2.39,2.67-3.58,1.42-1.74,2.7-3.41-.93-3.94-.78-.11-1.55-.25-1.35-1.29.19-.98,1.04-.91,1.77-.89,1.55.05,3.01.44,3.75,1.93.64,1.29.57,2.61-.44,3.8-1.23,1.44-2.4,2.95.92,4.05Z"/>
      <path class="cls-130" d="m233.82,150.94c-.01.51-.03,1.02-.04,1.53-8.44-.04-16.89-.08-25.33-.12-.72-1.45.19-1.79,1.31-1.76,8.02.2,16.05-.5,24.06.35Z"/>
      <path class="cls-63" d="m130.36,152.3c2.78-.62,5.36-1.05,8.67.23-4.39.95-2.8,3.91-3.17,6.17-.26,1.59.93,4.5-.9,4.5-2.48,0-1.03-2.9-1.26-4.5-.35-2.48,1.11-5.72-3.34-6.39Z"/>
      <path class="cls-103" d="m60.33,152.38c-7.96-.01-15.91-.03-23.87-.04-.11-1.18.5-1.7,1.62-1.77,6.64-.01,13.28-.04,19.91.04,1.01.01,3.12-.85,2.34,1.77Z"/>
      <path class="cls-108" d="m83.59,194.02c-1.03-1.45-4.19.81-4.01-1.6.15-2.1,2.51-.91,4.02-.49,1.19.33,2.28,0,2.81-1.22.3-.68.35-1.58-.32-2.07-1.23-.9-1.68.16-2.2,1.03-.41.68-1.04.65-1.54.13-.61-.64-1.12-1.31-.45-2.29.91-1.33,2.07-1.72,3.54-1.19,1.72.62,2.69,1.91,2.5,3.7-.25,2.41-1.86,3.62-4.35,4Z"/>
      <path class="cls-62" d="m37.2,150.95c-.25.46-.49.93-.74,1.39-1.72.3-1.68,1.37-1.21,2.69.4,1.12.72,2.26,1.07,3.39-.89.53-2.47-1.44-2.89.8-1.47-2.58-2.38-5.36-2.92-8.28,2.23-.58,4.46-.59,6.69,0Z"/>
      <path class="cls-152" d="m190.43,159.94c-1.11-2.23.68-2.23,1.92-2.24,10.52-.07,21.04-.08,31.57-.02,1.25,0,3.01.19,1.71,2.33-.21-.05-.43-.1-.64-.14-5.79-.91-11.63-.31-17.44-.4-5.08-.08-10.17-.19-15.24.1-.41.11-.82.21-1.24.3-.21.03-.42.05-.63.08Z"/>
      <path class="cls-59" d="m225.62,160.01c-.69.2-1.38.58-2.07.58-10.25.05-20.49.05-30.74.06-.86,0-1.75.05-2.39-.71.08-.1.16-.19.24-.29,4.42-1.02,8.91-.27,13.36-.5,5.71,0,11.42,0,17.13,0,1.48,0,3-.15,4.36.67l.1.18Z"/>
      <path class="cls-153" d="m78.38,160.07c-1.21.91-2.62.56-3.94.56-9.12.03-18.25.02-27.37,0-1.08,0-2.24.27-3.17-.59,0,0,.12-.25.12-.25,2.73-1.18,5.63-.75,8.4-.57,8.6.55,17.23-.04,25.82.59l.14.26Z"/>
      <path class="cls-164" d="m157.4,188.76c.13,1.1-.21,1.57-.8,1.87-1.51.75-2.7,1.33-.41,2.83,1.1.72.36,1.99-.78,2.03-1.46.05-2.18-1.43-3.09-2.36-.9-.92-.36-1.79.42-2.53.89-.84,1.69-1.81,2.68-2.52,1.21-.88,1.68.1,1.99.68Z"/>
      <path class="cls-17" d="m37.2,150.95c-2.23,0-4.46,0-6.69,0,.11-1.41,1.21-.76,1.83-.76,8.65-.03,17.29-.04,25.94.07,1.02.01,3.99-1.06,2.06,2.13-.32-2.16-2.04-1.38-3.21-1.39-6.64-.07-13.28-.04-19.93-.04Z"/>
      <path class="cls-3" d="m233.82,150.94c-7.51,0-15.01-.02-22.52.02-1.1,0-2.63-.54-2.85,1.39-1.17-1.92-1.11-2.1,1.6-2.13,7.54-.08,15.07-.14,22.61-.04,1.86.02,3.93-.78,5.6.8-1.48-.01-2.96-.03-4.44-.04Z"/>
      <path class="cls-49" d="m184.42,193.56c-2-.89-3.18-2.31-2.9-4.62.31-2.49,3.02-3.67,4.99-2.24.82.59,1.05,1.32.87,2.24-.13.66-.57,1.17-1.2,1.25-1.1.13-1.01-.8-1.11-1.5-.08-.6-.46-.91-.99-.78-.63.15-1.06.65-1.1,1.33-.18,2.8,1.64,2.89,3.67,2.68.27,1.94-1.3,1.35-2.24,1.63Z"/>
      <path class="cls-123" d="m234.49,109.11c-.24-.55-.59-1.08-.71-1.65-.33-1.62-1.52-1.47-2.6-1.23-1.38.3-.54,1.3-.53,2.08.08,5.45.11,10.9.14,16.36,0,.65-.2,1.21-.8,1.56-.19-6.24.75-12.52-.56-18.73-.16-.74-.16-1.66.65-1.9,1.41-.42,2.96-.62,4.29.2,1.57.97.04,2.2.11,3.31Z"/>
      <path class="cls-132" d="m101.42,175.18c-.51,1.87-2.34,2.87-3.59,4.28-.24.27-1.55-.88-1.47-1.73.2-2.02,1.57-3.17,3.48-3.62.68-.16,1.53-.18,1.59,1.08Z"/>
      <path class="cls-149" d="m155.9,207.7c-3.13-.09-5.84-1.99-6.89,1-.71,2.01,2.17.53,2.85,1.89-2.24,1.6-3.51.16-4.43-1.43-1.02-1.79.67-2.32,1.82-2.96,2.18-1.23,3.97-.23,6.65,1.5Z"/>
      <path class="cls-18" d="m135.15,106.09c-7.99,0-15.98-.01-23.97-.02,4.04-1.54,8.25-.63,12.36-.62,3.86.01,7.83-.99,11.61.64Z"/>
      <path class="cls-32" d="m166.53,106.09c-5.67,0-11.33-.01-17,.03-1.26,0-2.86-.51-3.23,1.5-1.39-.85-1.46-2.1.19-2.09,6.68.05,13.41-1.03,20.04.56Z"/>
      <path class="cls-159" d="m172.51,177.7c-.23.68-.61,1.62-1.46,1.03-1.29-.9-2.79-1.85-3-3.6-.13-1.05.87-1.02,1.62-.93,1.34.18,3.02,2.25,2.84,3.49Z"/>
      <path class="cls-160" d="m73.01,166.07c-.16,1.27-1.07,1.78-2.06,1.84-1.31.07-2.15-.81-2.05-2.08.08-1,.93-1.92,1.96-1.88,1.16.05,1.92.97,2.15,2.12Z"/>
      <path class="cls-31" d="m196.47,166.25c.38-1.14.9-2.17,2.17-2.11,1.12.06,1.65.95,1.59,2.05-.06,1.13-.77,1.82-1.86,1.84-1.12.02-1.7-.75-1.9-1.79Z"/>
      <path class="cls-106" d="m156.86,175.54c-4.58-2.19-9.36-2.48-14.28-1.49,5.28-2.39,11.25-1.77,14.28,1.49Z"/>
      <path class="cls-131" d="m100.93,205.96c.77-.89,2.43.06,2.55-1.23.18-1.83-1.71-2-3.11-2.66,2.2-.8,3.65-.28,4.64,1.52.52.94.17,1.63-.48,2.3-1.05,1.08-2.13,1.72-3.6.07Z"/>
      <path class="cls-121" d="m167.54,206.51c-2.44.79-3.9.3-3.91-1.79-.01-2.42,2.03-2.55,3.96-2.78-1.58,1.49-4.01,2.76-.05,4.57Z"/>
      <path class="cls-154" d="m126.11,225c5.51-.01,11.02-.02,16.54-.03-5.51,1.14-11.02,1.12-16.54.03Z"/>
      <path class="cls-86" d="m181.43,196.67c1.52-1.55,2.89-1.06,4.12-.69,1.05.32,2.38,1.05,1.73,2.31-.69,1.34-1.65-.02-2.47-.34-1.02-.39-2.04-.78-3.38-1.28Z"/>
      <path class="cls-180" d="m141.97,222.03c-5.06,1.07-10.13.98-15.19.03.25-.45.6-.54,1.04-.28,4.14.01,8.28.03,12.42.04.62-.3,1.22-.4,1.73.22Z"/>
      <path class="cls-172" d="m184.42,193.56c.75-.54,1.5-1.09,2.24-1.63,1.32-.95,2.57-.63,2.8.85.21,1.42-1.16,1.64-2.35,1.5-.93-.11-2.02.33-2.69-.73Z"/>
      <path class="cls-109" d="m115.21,206.66c1.95-1.54,3.52-1.56,4.96-.11.71.72,2.26,1.63,1.08,2.65-1.64,1.41-.76-1-1.48-1.38-1.37-.72-2.89-.59-4.55-1.16Z"/>
      <path class="cls-138" d="m87.84,196.64c-.39.88-1.24.61-1.92.73-1.27.23-2.52,1.15-3.83.22-.21-.15-.34-.83-.24-.9,1.24-.94,2.7-1.11,4.2-1,.72.05,1.52.02,1.79.96Z"/>
      <path class="cls-147" d="m169.6,202.32c2.03-2.67,4.99-3.68,8.36-3.77-2.79,1.26-5.57,2.51-8.36,3.77Z"/>
      <path class="cls-36" d="m141.97,222.03c-.58-.07-1.15-.14-1.73-.22,4.5-.89,9.07-1.07,13.63-1.3-3.83,1.62-7.9,1.27-11.9,1.52Z"/>
      <path class="cls-134" d="m61.14,107.61c-2.51-2.31-5.02-2.31-7.52,0-.6-.39-1.48-.78-.76-1.64.97-1.16,7.67-.83,8.66.39.36.45.03.91-.37,1.24Z"/>
      <path class="cls-14" d="m109.01,162.91c-.01-2.6-.05-5.19-.03-7.79,0-1.4.03-2.76-1.52-3.46,1.21-1.13,2.04-.16,2.06.78.07,3.49.93,7.05-.51,10.48Z"/>
      <path class="cls-16" d="m127.82,221.77c-.35.09-.69.19-1.04.28-3.73-.36-7.59.16-11.13-1.57,4.08.24,8.16.44,12.17,1.29Z"/>
      <path class="cls-113" d="m210.57,180.13c.06,1.12-.34,1.8-1.13,1.92-1.02.16-1.56-.54-1.68-1.51-.1-.85.39-1.52,1.14-1.66,1.05-.2,1.44.65,1.67,1.24Z"/>
      <path class="cls-166" d="m59.56,178.85c1.01.14,1.48.82,1.5,1.77.02.82-.41,1.47-1.27,1.53-.85.06-1.38-.52-1.52-1.32-.17-.99.32-1.64,1.29-1.98Z"/>
      <path class="cls-84" d="m50.63,165.75c.03,1.08-.32,1.66-1.23,1.69-.8.03-1.52-.29-1.58-1.17-.07-1,.55-1.59,1.54-1.7,1-.11,1.18.63,1.27,1.17Z"/>
      <path class="cls-25" d="m89.98,198.13c3.47-.25,5.52.88,7.21,2.95-2.13-.87-4.27-1.74-7.21-2.95Z"/>
      <path class="cls-136" d="m219.49,167.42c-.88-.03-1.4-.43-1.25-1.37.13-.78.55-1.43,1.43-1.36.81.07,1.29.66,1.3,1.49.02.99-.7,1.17-1.48,1.24Z"/>
      <path class="cls-90" d="m158.45,205.92c-.7-.02-1.42-.35-1.41-.92.04-1.2,1.15-1.43,2.08-1.52.62-.07,1.22.41,1.17,1.09-.08,1.09-1.08,1.12-1.84,1.35Z"/>
      <path class="cls-170" d="m127.53,174.23c-3.16-.69-6.36-1.01-9.6-.91,3.34-1.17,6.59-1.35,9.6.91Z"/>
      <path class="cls-97" d="m216.22,168.44c-.13.72-.55,1.13-1.23,1.2-1.12.11-1.54-.66-1.65-1.57-.09-.69.39-1.22,1.08-1.19.96.04,1.49.73,1.8,1.56Z"/>
      <path class="cls-83" d="m94.81,186.78c1.17,1.26.68,2.81.69,4.24,0,1.27.4,1.58,1.51,1,.08.79-.05,1.59-.94,1.73-.94.14-1.25-.68-1.27-1.43-.05-1.84,0-3.69.01-5.53Z"/>
      <path class="cls-150" d="m112.13,204.91c-1.52.8-2.66.99-3.65.02-.19-.19-.05-1.11.2-1.27,1.35-.85,2.2.19,3.45,1.25Z"/>
      <path class="cls-125" d="m55.9,168.32c-.09.88-.56,1.35-1.43,1.24-.8-.1-1.35-.63-1.31-1.44.04-.79.59-1.36,1.43-1.25.77.1,1.26.63,1.31,1.45Z"/>
      <path class="cls-68" d="m187.36,177.18c-2.54-.56-4.97.43-7.46.5,2.39-1.58,4.85-2.2,7.46-.5Z"/>
      <path class="cls-141" d="m61.82,193.57c-2.16-.84-3.71-2.28-4.44-4.52,1.68,1.31,3.3,2.68,4.44,4.52Z"/>
      <path class="cls-70" d="m107.39,179.21c-1.11,1.72-2.15,3.5-4.48,3.77,1.33-1.45,2.46-3.14,4.48-3.77Z"/>
      <path class="cls-41" d="m132.11,206.93c-.61,2.45-3.41.65-4.44,2.28-.62-.43-1.89-1.11-.15-1.38,1.55-.24,3.07-.53,4.59-.9Z"/>
      <path class="cls-44" d="m171.67,192.07c.95.31,1.69.37,1.62-1.03-.04-.95-.26-2,.64-2.75.02,1.24.06,2.47.07,3.71,0,.64-.13,1.31-.88,1.42-.94.14-1.26-.57-1.45-1.34Z"/>
      <path class="cls-55" d="m111.97,80.7c.34,1.75-.6,3.66.65,5.3.77.44,1.67.4,2.5.63,13.28.1,26.56.08,39.84,0,.65-.1,1.28-.24,1.76-.75.07-.24.14-.47.2-.71.53-1.19.22-2.45.26-3.67.04-1.2.22-2.36,1.61-2.55,1.54-.21,2.15.94,2.52,2.21.21.72.19,1.47.25,2.21.1,1.22-.06,2.77,1.73,2.72,1.58-.04,2.86-.77,2.98-2.67.08-1.25.22-2.55,1.31-3.36,1.3-.97,2.67-1.35,3.78.35-.15,4.81.39,9.63-.31,14.42,1.11,3.19,4.24.44,6.19,2.29-4.35,0-8.41-.01-12.47,0-1.16,0-1.9-.42-2.05-1.63-1.19-1.07-.44-2.92-1.74-4.18-1.56.98-.6,3.11-1.85,4.14-.53,2.58-2.6,1.66-4.04,1.55-1.57-.12-.2-1.58-.64-2.31-.08-.09-.17-.17-.25-.27-.8-.94-.33-3.2-2.13-2.9-1.74.29-.8,2.25-1.14,3.44-.07.23-.08.48-.12.72-2.65,2.1-9.13,2.09-11.19-.02-.02-.5.1-.98.18-1.46.16-1.02.22-2.2-1.06-2.35-1.15-.13-1.11,1.08-1.27,1.9-.12.61-.26,1.2-.73,1.66-1.48,2.64-3.03,2.73-4.64.12-.73-1.33.35-4.08-1.66-4-1.99.08-.67,2.72-1.29,4.09-3.31,2.66-6.88,1.66-10.45.77-.55-1.58.41-3.41-.83-4.85-3.17,0-1.43,2.76-2.3,4.04-.13.33-.34.59-.62.81-1.79.93-3.52,1.46-4.73-.85-.07-.1-.13-.21-.2-.31-.82-1.14.03-3.71-1.77-3.59-2.08.14-.97,2.63-1.52,3.99-2.01,2.13-7.05,2.16-9.65.05.23-.26.46-.53.69-.79-.02-.99-.03-1.99-.05-2.98-.69-4.44-.14-8.91-.31-13.36,2.18-2.49,4.95-2.6,7.42-.31,0,2.27-1.61,4.42-.58,6.92,2.47-.43,2.41-2.09,2.01-3.89-.27-1.19-1.31-2.12-1.18-3.46,3.92-2.59,6.06-1.69,6.9,2.89Z"/>
      <path class="cls-92" d="m176.98,93.42c.92,1.12,2.06,1.52,3.55,1.52,18.99-.08,37.98-.09,56.97-.11-4.96,1.72-10.16,2.05-15.21,1.33-3.42-.49-6.61.14-9.91.17-10.42.12-20.83.06-31.25.03-2.02,0-4.16,0-4.16-2.93Z"/>
      <path class="cls-161" d="m178.46,84.42c3.27-2.7,6.84-2.8,10.33-.74,2.53,1.49,4.92,3.37,4.08,7.39-1.96-3.33-4.4-5.73-8.44-5.29-1.28-3.59-3.95-1.03-5.97-1.35Z"/>
      <path class="cls-182" d="m171.05,94.84l-.09-14.85c-.72-1.06-.89-2.1.11-3.1,1.52,3.82.38,7.8.66,11.69.15,2.09.03,4.21.03,6.31-.24,0-.48-.01-.72-.05Z"/>
      <path class="cls-84" d="m114.95,96.39c.02-.3.05-.6.07-.9,2.62-.69,2.45-3.4,3.68-5.09,1.16,2,1.13,4,0,6-1.25-.54-2.5,1.33-3.75,0Z"/>
      <path class="cls-53" d="m31.91,94.99c18.38-.03,36.76-.06,55.14-.09,1.6,0,3.25.22,4.68-.79-.08.65-.29,1.26-.98,1.41-.6.13-1.24.11-1.86.12-14.77.24-29.55.56-44.32.67-3.95.03-7.87-.98-11.86-.67-.27-.22-.54-.44-.8-.66Z"/>
      <path class="cls-95" d="m79.08,84.45c2.51-1.72,5.04-3.26,8.18-1.47-2.73.49-5.45.98-8.18,1.47Z"/>
      <path class="cls-100" d="m78.24,159.81c-11.41,0-22.82-.01-34.22-.02.51-1.3,1.62-1.4,2.78-1.37,10.18.26,20.35.52,30.53.82.31,0,.61.37.91.57Z"/>
      <path class="cls-61" d="m225.53,159.82c-7.23,0-14.45.01-21.68.02-4.18-.97-8.48.33-12.65-.7.84-1.06,2.03-.72,3.1-.72,9.13-.03,18.26-.03,27.39-.01,1.42,0,3.06-.4,3.84,1.41Z"/>
      <path class="cls-105" d="m191.2,159.15c4.21.4,8.5-.78,12.65.7-4.4.1-8.79.3-13.18-.19.18-.17.35-.34.53-.51Z"/>
      <path class="cls-93" d="m123.22,50.85c-2.05-.62-1.85,1.71-2.99,2.28-1.1,0-2.18,1.68-3.3.04.14-2.16-1.54-.1-2-.86,2.45-4.35,6.66-6.36,10.98-8.22,1.7-.73,3.61-.97,5.09-2.2,1.1-.91,3.3-1.25,1.41-3.51-.76-.91.19-1.84.94-2.53.71-.65,1.5-.91,2.36-.31.81.56,1.16,1.49.82,2.3-1.66,3.9,1.64,4.47,3.8,5.32,3.13,1.22,6.22,2.38,9.06,4.23,4.56,2.98,6.97,7.25,8.03,12.42.36,1.77-.05,3.37-1.8,5.07-.42-3.05-.16-5.81-1.55-8.17-.41-.69-.33-2.19-1.88-1.39-.83.53-.51,1.77-1.41,2.27-1.2-2.1-2.4-4.2-3.77-6.6-.84,1.23.37,1.96.16,2.77-1.22.64-1.98-.86-3.1-.65-.5-.29-1-.58-1.5-.88-3.27-1.5-6.59-2.62-10.29-2.42-1.71.09-3.13.48-4.27,1.75-.32.18-.65.2-.98.03-1.68-1.01-1.35,1.32-2.36,1.42-.9-.45-1.09-1.37-1.43-2.18Z"/>
      <path class="cls-91" d="m128.33,61.23c-.03-2.13.68-4.06,1.61-5.93.74-1,1.07-2.26,1.83-3.23,1.89-2.43,4.11-2.29,5.66.27,2.63,4.24,3.17,8.92,2.95,13.77-.05,1.06.28,2.45-1.41,2.49-1.98.05-1.5-1.53-1.59-2.68-.19-2.36.52-4.89-1.53-7.84,0,3.07.07,5.27-.03,7.46-.05,1.21.64,3.1-1.58,3.04-1.93-.05-1.31-1.77-1.35-2.87-.09-2.22-.03-4.44-.03-7.13-2.29,2.38-1.4,4.92-1.43,7.19-.03,2.15-.48,3.41-2.94,2.88-.86-2.45-.54-4.93-.17-7.41Z"/>
      <path class="cls-48" d="m153.8,72.48c-3.47.51-7.05-.7-10.45.74-1.06,3.69.27,7.54-.72,11.23-1.86,1.05-3.08.89-3.06-1.62,0-.37-.04-.75.01-1.11.68-4.35-3.15-7.44-5.16-7.5-2.48-.07-4.87,3.35-5.19,7.19-.1,1.21.63,3.12-1.59,3.03-2.15-.09-1.26-2-1.43-3.19-.12-.85-.02-1.73-.02-2.6q-.04-6.03-5.97-6.19c.02-1.5,1.19-1.35,2.13-1.43,9.79-.86,19.58-.05,29.36.01.92,0,2.12-.1,2.08,1.44Z"/>
      <path class="cls-39" d="m135.12,17.03c3.32,13.26,7.81,12.22,15.16,11.75-.89,2.77-3.17,4.56-6.79,4.79-4.18.26-7.47-1.45-9.46-5.25-1.96-3.74-1.66-7.34,1.09-11.29Z"/>
      <path class="cls-181" d="m160.15,70.18c-.99.97.55,2.85-1.21,3.48-.25.09-.91-.42-1.1-.79-.8-1.59.05-2.92.96-4.09.83-1.08,1.85-2,2.83-2.96,1.16-1.14,2.47-2.12,1.43-4.1-.51-.98-.12-2.16,1.07-2.33,1.27-.18,1.93,1.08,1.55,1.97-1.17,2.8.78,4.04,2.39,5.51.27.25.52.53.8.78,1.55,1.41,2.93,3.18,1.93,5.15-.4.78-2.67.82-4.09.82-1.78,0-3.34-.87-5.41-.14-1.33.47-.04-2.37-1.15-3.3Z"/>
      <path class="cls-4" d="m171.08,76.89c-.04,1.03-.07,2.07-.11,3.1-2.71-.36-4.04.79-3.66,3.53.52,3.68-2.37,3.58-4.47,3.76-2.59.23-2.23-2.02-2.29-3.71-.02-.74.01-1.48-.04-2.21-.07-.9-.34-1.8-1.43-1.82-1.09-.03-1.35.86-1.5,1.76-.22,1.29.43,2.74-.67,3.88-.54-8.91-.54-8.96,8.38-8.86,1.92.02,3.96-.64,5.78.57Z"/>
      <path class="cls-58" d="m103.74,73.9c-2.71.64-2.01-1.72-2.53-2.97-1.31.77.69,2.91-1.41,3.2-.53.07-1.38-.21-1.65-.61-.84-1.27-.49-2.65.3-3.81.75-1.11,1.7-2.09,2.6-3.1,1.32-1.49,3.5-2.52,2.21-5.23-.37-.79.59-1.61,1.45-1.84.74-.2,1.3.61,1.17,1.08-1.02,3.55,1.95,4.87,3.67,6.91.45.54.65,1.28.97,1.93-1.89-.34-1.73,1.27-2.17,2.3-.28.66-.44,1.55-1.36,1.44-.62-.07-.8-.83-1.17-1.3-.64-.81.1-3.08-1.82-2.36-1.3.49-.67,2.13-.28,3.29.12.35.16.71.03,1.07Z"/>
      <path class="cls-157" d="m137.44,52.34c-1.84-2.36-3.52-1.2-5.17.24-.91.79-1.06,2.23-2.33,2.72.23-.98.46-1.95.69-2.93-.77-1.1-2.05-.29-2.97-.8.56-3.1,2.88-2.68,5.07-2.57,3.58.18,7.31-.13,9.83,3.24,1.33,4.29,3.67,8.34,3.05,13.09-.13.95.2,2-.72,2.73-1.55-1.62-.89-3.69-1.13-5.57-.18-1.44-.2-2.91-1.08-4.52.8,1.62,1.05,2.9-.1,4.1-.78-2.27-1.47-4.57-2.36-6.79-.51-1.28-.82-2.94-2.77-2.94Z"/>
      <path class="cls-13" d="m69.28,77.63c-2.58,2.16-4.21,4.86-4.41,8.25-.09,1.46-.43,2.44-2.11,2.29-5.38-.5-10,1.11-13.86,4.92-.45.44-1.11.52-2.05-.25,2.47-3.25,4.84-6.49,9.59-6.13,3.56.27,6.33-.12,6.77-4.59.18-1.82,1.42-3.41,3.1-4.45q2.23-1.24,2.99-.03Z"/>
      <path class="cls-38" d="m127.66,51.57c1.17-.4,2.97-3.13,2.97.8-3.4,3.63-4.41,8.07-4.52,12.88-.03,1.25,1.01,3.44-1.55,3.32-2.07-.1-1.29-2.04-1.38-3.26-.36-5.01,1.26-9.49,3.81-13.71.22-.02.43-.04.65-.04Z"/>
      <path class="cls-12" d="m153.8,72.48c-.84-1.09-2.04-.68-3.12-.72-6.16-.26-12.31-.53-18.47-.72-4.06-.12-8.07.33-11.99,1.42-2.01,0-4.21.72-5.74-1.35.42-1.25,1.44-.87,2.21-.88,11.64-.01,23.28-.02,34.91.05,1.24,0,3.74-.79,2.19,2.2Z"/>
      <path class="cls-128" d="m144.06,53.12c1.79-3.39,1.83,1.55,3.1.65,2.94,3.8,3.07,8.24,2.88,12.74-.05,1.08-.5,2-1.73,2.04-1.29.04-1.3-1.05-1.18-1.87.7-4.92-1.19-9.24-3.08-13.57Z"/>
      <path class="cls-5" d="m123.22,50.85c.97.4,1.43,1.14,1.43,2.18-2.33,3.96-3.48,8.18-3.06,12.81.09.98.62,2.57-1.05,2.68-1.7.12-1.78-1.42-1.82-2.68-.2-5.5,1.15-10.55,4.5-15Z"/>
      <path class="cls-21" d="m117.19,53.07c.73.3,1.12.32,1.68-.57.97-1.53,1.1-.05,1.37.62-1.47,4.28-3.75,8.37-3.04,13.16.11.78.4,1.97-.83,2.09-1.13.11-1.8-.84-1.96-1.86-.48-3,.39-5.85,1.21-8.69.34-1.18.64-2.36.97-3.54-.14-.58.11-.96.62-1.21Z"/>
      <path class="cls-143" d="m203.11,81.5c-5.15-5.53-5.86-5.62-14.38-1.9.68-3.44,2.85-4.89,7.22-4.84,5.13.06,9.37,3.79,10.17,8.94-1.8.35-1.53-2.11-3.01-2.2Z"/>
      <path class="cls-171" d="m203.11,81.5c.14-.83.4-1.59,1.25-.55.68.84,1.18,1.82,1.76,2.74,0,0,.02,0,.02,0,.27,2,1.2,2.99,3.42,2.66,2.55-.38,4.9.48,7.07,1.79,2.4.72,3.68,2.65,5.37,4.63-1.9.84-2.77-.38-3.73-1.11-2.62-1.97-5.44-3.64-8.79-3.41-3.35.23-5.45-.56-5.62-4.29-.04-.83-.49-1.64-.75-2.46Z"/>
      <path class="cls-140" d="m103.74,73.9c-1.67-.98-1.71-2.53-1.43-4.17.22-1.28,1.25-1.99,2.33-2,1.27,0,1.79.88,1.56,2.29-.12.75.38,1.61.64,2.55,1.46-1.47,1.53-3.07.6-4.91,1.56.31,1.68,2.03,3.07,1.79,1.14,1.29.92,2.69.34,4.12-1.99-2.01-3.36,1.65-5.3.58-.5-.28-1.21-.19-1.82-.26Z"/>
      <path class="cls-99" d="m118.7,80c-.02-.14-.05-.64-.13-1.13-.29-1.73.26-3.25,2.09-3.15,1.65.09,2.38,1.57,2.16,3.3-.14,1.1-.36,2.2-.37,3.3,0,1.57-.37,2.76-2.23,2.68-1.98-.09-1.41-1.65-1.51-2.79-.05-.62,0-1.24,0-2.22Z"/>
      <path class="cls-148" d="m182.1,58.87c-.08-2.9,2.64-2.06,3.38-3.45,1.44.92,3.43,1.14,3.51,3.59.08,2.39-2.6,3.53-3.06,3.3-1.57-.77-4.28-1.04-3.83-3.44Z"/>
      <path class="cls-151" d="m174.72,49.44c-4.52,2-2.05-2.88-3.78-3.6.78-1.5,2.74-1.4,3.68-2.68.97,1.22,2.93,1.14,3.62,2.73-2.19.24,1.36,6.22-3.52,3.55Z"/>
      <path class="cls-42" d="m86.06,59.02c.74,2.27-1.69,2.57-3.07,3.48-.64.42-4.11-3.88-3.57-4.57.94-1.2,2.34-2.04,3.55-3.03.49,1.66,3.55,1.24,3.09,4.12Z"/>
      <path class="cls-146" d="m93.52,49.47c-3.77,1-2.07-2.93-3.72-3.76,1.26-.88,2.52-1.76,3.77-2.64.38,1.68,3.63,1.02,2.93,3.43-.43,1.49.67,4.99-2.99,2.98Z"/>
      <path class="cls-79" d="m214.35,62.36c-.16.29-.35.86-.5.85-.44-.03-1.04-.16-1.26-.47-2.43-3.43-5.17-6.6-8.09-9.62-.66-.69-.84-1.53-.09-2.31.61-.64,1.16-.22,1.54.26,2.66,3.39,5.29,6.8,7.91,10.22.22.28.3.67.48,1.07Z"/>
      <path class="cls-126" d="m150.78,57.6c.61-.67-1.19-2.83,1.41-2.27-.13,1.58.95,2.69,1.46,4.02.57,1.45.74,3.12.8,4.7.07,1.7.08,4.21-1.93,4.18-1.92-.02-.65-2.41-.88-3.71-.41-2.29-.59-4.62-.86-6.93Z"/>
      <path class="cls-76" d="m114.2,86.71c-.61-.05-1.21-.13-1.57-.72,14.7-.04,29.4-.07,44.09-.11-.22.28-.43.56-.65.84-6.91.74-13.84.28-20.76.28-7.04,0-14.09.46-21.12-.28Z"/>
      <path class="cls-50" d="m117.19,53.07c-.21.4-.41.81-.62,1.21-3.44,2.5-2.43,6.79-3.93,10.18-2.31-3.38-1.34-8.26,2.29-12.16.95-.69,1.89-1.39,3.34-2.45-.48,1.42-.78,2.32-1.09,3.22Z"/>
      <path class="cls-120" d="m87.3,33.62c-2.66.41-4.97,1.63-6.79,3.53-.83.87-4.2,2.2.05,3.5,1.5.46.51,1.88-.53,2.45-.94.51-1.93.3-2.75-.45-.76-.69-1.32-1.41-1.04-2.58.64-2.73,7.44-7.82,10.38-7.6.25.02.45.77.67,1.17l.02-.02Z"/>
      <path class="cls-122" d="m55.62,63.44c-1.08-.12-1.22-.77-.71-1.54,2.43-3.69,4.8-7.44,8.19-10.36.31-.27.87-.26,1.31-.38.1.45.45,1.11.27,1.31-3.02,3.39-5.82,6.96-8.37,10.71-.11.16-.44.17-.68.25Z"/>
      <path class="cls-135" d="m69.28,77.63c-1.01-1.23-1.99.44-2.99.03,3.49-3.71,9.96-3.97,13.26-.51.6.62,1.42,1.33.66,2.21-.7.8-1.36-.02-1.84-.5-2.73-2.71-5.92-1.87-9.09-1.22Z"/>
      <path class="cls-139" d="m93.5,34.65c-.59-.36-1.17-.5-1.33-.84-.33-.69.23-1.21.79-1.44,3.17-1.33,6.36-2.62,9.57-3.85.52-.2,1.34-.19,1.57.51.11.33-.18,1.06-.49,1.22-3.27,1.71-6.96,2.4-10.1,4.41Z"/>
      <path class="cls-142" d="m177.29,33.85c-4.41-.26-8.28-2.09-12.21-3.73-.49-.21-.72-.94-.35-1.23.42-.33,1.22-.51,1.71-.34,3.81,1.31,7.57,2.75,10.85,5.31Z"/>
      <path class="cls-74" d="m194.88,49.55c-.02-1.79.4-3.16,2.61-3.2,2.25-.04,3.19,1.48,3.27,3.23.09,1.9-1.22,3.39-3.19,3.33-1.83-.06-2.68-1.53-2.69-3.36Z"/>
      <path class="cls-67" d="m74.43,49.19c-.57,1.83-1.2,3.71-3.22,3.71-1.67,0-3.18-1.47-3.16-3.06.03-1.92,1.47-3.37,3.6-3.48,1.95-.1,2.19,1.61,2.78,2.82Z"/>
      <path class="cls-102" d="m142.58,62.07c.06-1.31.12-2.62.2-4.55,2.89,3.54,1.81,7.17,2.1,10.54-1.31.99-2.26.93-2.33-.95-.07-1.68.01-3.36.03-5.04Z"/>
      <path class="cls-20" d="m191.21,38.86c-2.92-1.23-4.72-4.79-8.54-4.39-.29,1.83,1.65,1.52,1.93,2.61-.66.55-1.42.4-2.02.04-1.07-.65-2.17-1.46-1.65-2.94.32-.91.92-1.91,2.17-1.52,3.45,1.07,6.74,2.4,8.09,6.22l.02-.02Z"/>
      <path class="cls-33" d="m156.82,34.64c.2,1.72,4.62,1.93,1.54,4.64-.73.65-.9,2.15-2.7.63-3.42-2.9.86-3.47,1.15-5.27Z"/>
      <path class="cls-55" d="m150.06,84.41l-2.15.12c-1.23-1.46-1.7-5.89-.7-6.88.59-.59,1.3-.62,2.06-.4.84.24,1.2.85,1.15,1.67-.12,1.83.44,3.7-.36,5.48Z"/>
      <path class="cls-98" d="m112.75,41.35c.13-1.83-4.76-2.37-1.16-5.03.58-.43.51-2.14,2.01-.89,2.93,2.44.41,4.03-.86,5.92Z"/>
      <path class="cls-69" d="m150.06,84.41c0-1.71,0-3.41-.03-5.12-.02-.81-.38-1.41-1.27-1.48-1.07-.09-1.67.49-1.6,1.5.12,1.75-.75,3.67.76,5.22-1.26.76-1.53-.04-1.56-1.05-.06-1.74-.06-3.47-.08-5.21-.02-1.2.25-2.32,1.6-2.58,1.5-.29,2.58.78,2.72,1.96.27,2.24.89,4.61-.52,6.76Z"/>
      <path class="cls-144" d="m104.54,78.54c-2.01-2.25-4.39-1.3-6.72-.77-.25-.14-.35-.31-.32-.51.04-.21.09-.32.16-.32,4.27-1.57,8.69-.72,13-.51,2.4.12,1.07,2.74,1.31,4.27-1.74-4.39-3.5-4.96-6.76-2.2-.21.2-.43.21-.67.04Z"/>
      <path class="cls-56" d="m191.19,38.88c1.1.58,1.8,1.4,1.19,2.68-.43.92-1.17,1.58-2.25,1.75-1.41.23-2.15-.63-2.38-1.78-.25-1.24.51-1.93,1.75-1.56,1.15.34,1.64.02,1.71-1.12,0,0-.02.02-.02.02Z"/>
      <path class="cls-129" d="m227.57,88.46c.11.72-.28,1.65-.72,1.45-2.37-1.12-1.6-3.75-2.44-5.64-.33-.73.24-1.39.86-1.15,2.51.98,1.35,3.66,2.31,5.35Z"/>
      <path class="cls-174" d="m42.2,90.16c-1.19-2.55.18-4.57.46-6.67.06-.44.48-.89,1.09-.71.54.15.91.61.72,1.11-.75,1.98-.47,4.36-2.27,6.27Z"/>
      <path class="cls-27" d="m110.07,21.01c1.19.22,1.87.82,1.79,1.97-.06.96-.69,1.56-1.65,1.6-1.14.05-1.87-.61-1.89-1.73-.02-1.13.75-1.69,1.75-1.84Z"/>
      <path class="cls-26" d="m52.05,69.41c-.41,1.2-1.02,2.07-2.08,2.08-1.25,0-1.52-1.02-1.5-2.1.02-1.06.74-1.65,1.62-1.67,1.13-.04,1.55.95,1.95,1.69Z"/>
      <path class="cls-163" d="m220.32,69.71c-.1,1.27-1.06,1.65-2.06,1.73-1.07.09-1.6-.74-1.54-1.68.07-1.18.96-1.66,2.07-1.69,1.1-.03,1.55.6,1.53,1.64Z"/>
      <path class="cls-77" d="m97.66,76.94c.05.28.1.55.16.83-.04,4.72-.07,9.43-.11,14.15-1.16-4.99-1.13-9.98-.05-14.97Z"/>
      <path class="cls-116" d="m216.64,88.15c-2.75-.61-5.38-1.86-8.32-1.52-2.3.27-2.19-1.4-2.17-2.94.84,1.59,1.94,2.44,3.94,2.29,2.39-.18,4.86-.04,6.55,2.17Z"/>
      <path class="cls-6" d="m87.28,33.64c2.12.33,1.62,1.48.73,2.59-.99,1.23-2.43,1.48-4.35,1.6,1.07-1.86,4.23-1.52,3.64-4.2,0,0-.02.02-.02.02Z"/>
      <path class="cls-127" d="m66.09,68.33c-1.12-.23-1.21-1.06-1.15-1.97.06-.93.6-1.35,1.47-1.15.96.22,1.48.87,1.32,1.89-.15.9-.9,1.07-1.64,1.22Z"/>
      <path class="cls-45" d="m142.63,84.45c.29-3.74-.83-7.57.72-11.23-.38,3.73.86,7.57-.72,11.23Z"/>
      <path class="cls-37" d="m204.57,67.36c0,.17-.54.68-1.56.65-.88-.03-1.22-.54-1.32-1.37-.16-1.36.89-1.13,1.63-1.31,1-.23,1.28.33,1.25,2.04Z"/>
      <path class="cls-87" d="m45.47,77.14c.95-.09,1.34.41,1.38,1.27.04.83-.28,1.43-1.15,1.54-.78.1-1.53-.1-1.63-1-.1-.97.49-1.56,1.4-1.8Z"/>
      <path class="cls-165" d="m223.32,79.92c-.76.05-1.27-.26-1.34-.98-.08-.82.32-1.51,1.13-1.66.82-.16,1.47.33,1.53,1.18.06.87-.57,1.29-1.32,1.46Z"/>
      <path class="cls-88" d="m93.82,28.42c.13.98-.34,1.33-1.02,1.4-.61.06-1.32.05-1.53-.69-.27-.96.32-1.36,1.18-1.4.65-.04,1.23.11,1.37.69Z"/>
      <path class="cls-162" d="m176.63,29.81c-.71-.07-1.08-.47-1-1.18.09-.77.67-.93,1.3-.83.6.09,1.2.41,1.07,1.13-.12.66-.73.87-1.37.88Z"/>
      <path class="cls-119" d="m128.33,61.23c.06,2.47.12,4.94.17,7.41-1.45-2.44-1.14-4.92-.17-7.41Z"/>
      <path class="cls-30" d="m152.98,22.23c-.03.48-.23,1.09-.9,1.2-.71.12-1.03-.47-1.13-1.07-.1-.64.11-1.19.86-1.28.7-.08,1.1.28,1.16,1.14Z"/>
      <path class="cls-177" d="m114.2,86.71c13.96,0,27.92,0,41.88,0-.76.87-1.79.7-2.76.7-12.12,0-24.24,0-36.36,0-.97,0-2.01.18-2.76-.71Z"/>
    </g>
  </g>
</svg>